<mxfile host="app.diagrams.net" modified="2023-12-31T06:32:31.906Z" agent="Mozilla/5.0 (Macintosh; Intel Mac OS X 10_15_7) AppleWebKit/537.36 (KHTML, like Gecko) Chrome/120.0.0.0 Safari/537.36" version="22.1.16" etag="YiuUFGBOPeJiCt9X7_Cd" type="github">
  <diagram name="Page-1" id="LMMh6tna4-OrlnVkqSnp">
    <mxGraphModel>
      <root>
        <mxCell id="0" />
        <mxCell id="1" parent="0" />
      </root>
    </mxGraphModel>
  </diagram>
</mxfile>
